<svg width="163" height="142" viewBox="0 0 163 142" fill="none" xmlns="http://www.w3.org/2000/svg">
<g clip-path="url(#clip0_102_64)">
<path d="M161.869 135.13L84.9967 2.16381C84.2112 0.811428 82.7756 0 81.2316 0C79.6877 0 78.2521 0.838476 77.4666 2.16381L0.594507 135.13C-0.191007 136.482 -0.191007 138.132 0.594507 139.458C1.38002 140.81 2.81562 141.621 4.35956 141.621H158.104C159.648 141.621 161.083 140.783 161.869 139.458C162.654 138.105 162.654 136.455 161.869 135.13Z" fill="black"/>
<path d="M11.9148 132.945L81.2568 13.5332L150.599 132.945H11.9148Z" fill="#F6BD16"/>
</g>
<path d="M73.0619 135.636C66.4813 133.979 59.5527 131.293 54.8343 126.13C53.7314 124.879 52.767 123.585 52.0233 122.066C51.1729 120.336 50.7239 118.435 50.7097 116.507C50.6828 114.564 51.2555 112.758 52.3442 111.095C52.9395 110.188 53.5433 109.308 54.3238 108.563C54.7125 108.224 54.9535 107.746 54.9955 107.232C55.0874 105.872 55.7873 104.775 56.5947 103.751C57.1348 103.063 57.6849 102.432 57.5194 101.442C57.4572 101.067 57.5392 100.642 57.6297 100.239C57.7626 99.6492 57.6453 99.1444 57.0471 98.7923C56.5042 98.4713 56.0149 98.057 55.5059 97.6767C55.2118 97.4561 54.8668 97.2666 54.6575 96.9824C53.9901 96.0958 53.679 95.1004 53.8685 93.9678C54.0283 93.0134 54.1725 92.0575 54.1273 91.0762C54.0947 90.3961 53.9081 89.7598 53.7299 89.1207C53.5009 88.2921 53.1361 87.4988 52.9325 86.666C52.4927 84.8716 52.1109 83.0617 51.7207 81.2561C51.5793 80.5703 51.4973 79.8675 51.3346 79.186C51.1254 78.3136 51.0292 77.4129 50.639 76.5857C50.2346 75.7302 50.0635 74.7913 49.6181 73.9359C49.1939 73.12 48.979 72.1953 48.6905 71.3129C48.3412 70.2425 48.0372 69.158 47.729 68.0777C47.2892 66.5379 47.4985 64.9245 47.408 63.3451C47.343 62.2139 47.3755 61.0686 47.2765 59.9304C47.1747 58.7582 46.636 57.6948 46.4833 56.5368C46.3871 55.8072 46.2683 55.0422 46.5596 54.3593C47.0008 53.3242 47.2977 52.2524 47.2949 51.1523C47.2949 49.3368 47.1365 47.5212 47.0517 45.7057C46.9598 43.7487 46.8792 41.7932 46.9329 39.832C46.9612 38.7842 47.2652 37.7789 47.2793 36.7339C47.3006 35.2832 47.5819 33.8664 47.8562 32.4453C48.0514 31.4315 48.2394 30.3866 48.0231 29.3473C47.8463 28.4989 47.5876 27.6873 47.9015 26.7795C48.2479 25.777 48.3257 24.6826 49.1967 23.9077C49.9518 23.2318 50.1483 22.1416 51.008 21.5039C51.7659 20.9383 52.2071 20.032 53.0074 19.4847C53.6748 19.0294 54.3012 18.5176 54.9573 18.0453C55.8339 17.409 56.6244 16.6695 57.5633 16.0841C58.9306 15.2357 60.4492 14.7125 61.8335 13.9179C62.6055 13.4753 63.4963 13.324 64.2684 12.9097C65.3882 12.3074 66.6156 12.0005 67.7779 11.5141C68.5443 11.1931 69.4266 11.1564 70.2085 10.8637C70.9904 10.571 71.8388 10.8071 72.5614 10.3419C72.905 10.1213 73.3419 10.168 73.7293 10.0832C74.1436 9.99125 74.5777 9.82299 75.0274 9.93469C75.3187 10.0082 75.593 10.0761 75.8984 9.91207C76.0101 9.84844 76.4329 9.73108 76.1133 10.1567C76.0751 10.2076 76.0879 10.2698 76.1416 10.2839C76.1953 10.2981 76.3028 10.3066 76.3396 10.2712C76.6464 9.97146 77.1342 9.97004 77.4071 9.6123C77.4919 9.50201 77.6772 9.38041 77.7733 9.47091C78.0943 9.7537 78.4436 9.54726 78.773 9.57554C80.0315 9.68442 81.2574 9.99974 82.5102 10.1242C83.3359 10.2048 84.1447 10.4451 84.9606 10.4762C85.7765 10.5074 86.4623 11.1168 87.3008 10.9004C87.5298 11.2667 87.9116 11.1026 88.2213 11.1408C88.6158 11.1889 88.9565 11.3798 89.327 11.4844C90.1754 11.7206 91.0817 11.8351 91.7972 12.4318C91.8764 12.4968 91.9754 12.5732 92.0574 12.4318C92.1818 12.2282 92.1748 12.2395 92.3473 12.2904C93.1589 12.5251 93.9281 12.914 94.7722 13.0172C95.5075 13.1063 96.2725 13.2491 96.872 13.6012C97.6356 14.0508 98.5617 14.188 99.2079 14.8497C99.7382 15.3913 100.533 15.5185 101.083 16.0756C101.762 16.731 102.383 17.4445 102.938 18.2079C103.407 18.8895 104.025 19.4522 104.483 20.1465C104.745 20.541 104.833 21.0387 105.23 21.3484C105.486 21.5492 105.625 21.8362 105.766 22.1232C106.262 23.1258 106.992 23.9727 107.693 24.8254C108.065 25.3106 108.41 25.8156 108.727 26.3383C108.999 26.7585 109.136 27.252 109.119 27.7523C109.108 28.3186 109.128 28.885 109.179 29.4491C109.257 30.4148 109.12 31.4032 109.435 32.3407C109.626 32.9804 109.786 33.6293 109.912 34.2849C110.178 35.4698 110.329 36.6887 110.484 37.8878C110.578 38.6216 110.781 39.3371 110.767 40.0907C110.728 41.8031 110.721 43.5168 110.726 45.2292C110.726 45.9885 110.674 46.7407 110.613 47.4915C110.538 48.429 110.547 49.3948 110.955 50.253C111.452 51.2937 111.51 52.3556 111.379 53.4571C111.307 54.0864 111.218 54.717 111.112 55.3391C110.751 57.3725 110.615 59.4395 110.706 61.5027C110.808 63.1221 110.739 64.7477 110.5 66.3527C110.339 67.3509 109.947 68.2884 109.83 69.2853C109.68 70.5579 109.141 71.7173 108.854 72.9489C108.625 73.9387 108.289 74.9115 108.181 75.9183C107.985 77.5712 107.566 79.2567 107.13 80.9436C106.604 82.8284 105.963 84.8476 105.738 86.8272C105.513 88.8067 105.704 90.7439 106.841 92.4633C107.635 93.5365 108.059 94.9505 108.059 96.3645C108.625 102.02 110.322 107.676 113.998 112.343C115.884 114.7 116.167 117.214 115.507 119.711C115.141 121.017 114.598 122.266 113.892 123.424C110.463 128.603 106.08 133.835 99.9998 135.815C92.7884 138.077 85.4357 135.108 78.083 135.108C76.669 135.108 75.3964 136.239 73.9966 135.823C73.6374 135.935 73.3419 135.81 73.0619 135.636ZM66.6269 59.1979C66.8517 59.188 67.0737 59.147 67.2787 59.3209C67.3443 59.3693 67.4229 59.397 67.5043 59.4002C67.5857 59.4035 67.6662 59.3823 67.7355 59.3393C68.1597 59.007 68.6432 59.1088 69.1042 59.0876C69.8381 59.0523 70.4984 58.7271 71.1926 58.5927C72.3139 58.375 73.25 57.8207 74.1747 57.248C75.0995 56.6754 76.0737 56.1168 76.6068 55.0549C76.7482 54.7721 77.089 54.6067 77.2982 54.2942C77.6277 53.8021 77.8087 53.2422 78.1466 52.7558C78.4294 52.3528 78.5708 51.8212 78.6641 51.3263C78.7716 50.7847 78.3615 50.3365 77.7804 50.2601C77.658 50.2557 77.5419 50.2052 77.4552 50.1187C76.6987 49.2887 75.6425 48.9875 74.6555 48.593C73.8198 48.2551 72.9757 47.9539 72.0255 47.985C71.5419 48.0006 71.0838 47.6103 70.5733 47.5184C70.5083 47.5071 70.4432 47.4223 70.3881 47.4321C69.5637 47.5849 68.7705 47.1847 67.9476 47.2908C67.8256 47.2975 67.7072 47.3339 67.6025 47.3968C67.2434 47.64 66.8955 47.6584 66.5675 47.3247C66.5205 47.2602 66.4577 47.2089 66.3851 47.1758C66.3126 47.1426 66.2327 47.1286 66.1532 47.1352C64.8424 47.3374 63.5387 46.9274 62.228 47.0885C61.1699 47.2079 60.1301 47.4548 59.1314 47.8238C58.5431 48.0472 58.0186 48.3625 57.4671 48.6397C57.4049 48.6708 57.3257 48.6835 57.2833 48.7316C56.8831 49.2548 56.2666 49.6408 56.0729 50.287C55.9032 50.8526 55.3277 51.1099 55.209 51.6868C55.0266 52.5748 54.6575 53.4487 55.1524 54.3522C55.1835 54.4053 55.2026 54.4646 55.2085 54.5259C55.2143 54.5872 55.2068 54.649 55.1863 54.7071C54.8894 55.1313 55.0449 55.5937 55.0365 56.0405C55.0124 56.8889 55.5639 57.3923 56.1747 57.8023C57.2451 58.5192 58.5446 58.6408 59.7266 59.0678C60.3983 59.311 61.0742 59.0438 61.6878 59.2191C62.6776 59.5019 63.6434 59.2078 64.5879 59.2926C65.2864 59.2545 65.9567 59.2248 66.6269 59.1979ZM91.9598 47.1663C90.922 47.5255 89.788 47.3473 88.7628 47.8959C88.1725 48.2 87.5408 48.4158 86.8879 48.5365C86.27 48.6567 85.6846 49.0102 85.1232 49.3453C84.7315 49.58 84.2989 49.7412 83.8916 49.949C83.1352 50.3351 82.9528 51.0802 82.5639 51.6996C82.3363 52.0587 82.7053 52.3401 82.8849 52.5479C83.0983 52.7725 83.2706 53.0329 83.3939 53.3172C83.4477 53.4721 83.548 53.6067 83.6811 53.7026C83.8142 53.7985 83.9736 53.8511 84.1377 53.853C84.535 53.853 84.6608 54.0722 84.7612 54.3324C84.9875 54.9178 85.4513 55.1115 86.0154 55.1638C86.0691 55.1635 86.1222 55.1749 86.171 55.1971C86.2198 55.2193 86.2632 55.2518 86.2982 55.2925C86.8469 55.9754 87.6458 56.3049 88.4192 56.5368C89.1121 56.7432 89.7088 57.2099 90.4554 57.2509C90.56 57.2509 90.6675 57.364 90.7594 57.4403C90.9531 57.5987 91.1298 57.8051 91.3886 57.5393C91.4123 57.5142 91.4443 57.4986 91.4787 57.4955C91.5131 57.4923 91.5474 57.5019 91.5752 57.5223C92.2596 57.9465 93.1094 57.8278 93.8192 58.1954C93.9705 58.2732 94.2038 58.2237 94.3933 58.1954C94.7086 58.1516 94.9872 58.1855 95.2078 58.44C95.3195 58.5687 95.499 58.6959 95.615 58.5616C95.8752 58.2604 96.0957 58.3891 96.3347 58.5503C96.6939 58.7921 97.0926 58.744 97.4942 58.7454C98.0287 58.7454 98.5759 58.5715 99.0962 58.8741C99.2107 58.942 99.4016 58.8911 99.5515 58.8105C100.02 58.5588 100.476 58.621 100.997 58.7143C101.405 58.7879 101.937 58.8246 102.32 58.7044C102.766 58.563 103.29 58.5857 103.675 58.2406C104.165 57.7995 104.85 57.5633 105.07 56.8337C105.131 56.6738 105.164 56.5044 105.168 56.3332C105.12 55.4296 105.23 54.495 104.817 53.6466C104.498 52.9948 104.393 52.2736 104.073 51.626C103.912 51.3036 103.632 51.134 103.398 50.9049C103.123 50.6377 103.021 50.1456 102.469 50.229C102.371 50.2432 102.196 50.0551 102.186 49.8783C102.172 49.3665 101.817 49.1445 101.412 49.0017C101.137 48.9027 100.95 48.6878 100.728 48.5351C100.082 48.0939 99.314 48.026 98.6225 47.7531C97.6752 47.3827 96.6868 47.254 95.6701 47.1479C94.8642 47.0631 94.0737 47.0829 93.4078 47.073C92.8351 47.1083 92.36 47.0277 91.9598 47.1663ZM73.3956 89.6891C73.6021 89.9054 73.8863 89.9238 74.1125 90.1005C74.6781 90.5445 75.0161 91.137 75.371 91.7337C75.8432 92.5312 76.5403 92.9582 77.4651 93.1477C78.3964 93.4793 79.3841 93.6238 80.3714 93.5729C81.3588 93.5219 82.3263 93.2765 83.2186 92.8507C84.9832 92.0335 86.5118 90.5884 87.5652 88.7728C88.4927 87.3164 88.4136 85.6225 87.3941 84.4531C86.7097 83.6556 86.5245 82.704 86.1215 81.8259C85.9023 81.3536 85.5559 81.0213 85.1317 80.6834C84.4063 80.1065 83.5311 79.9057 82.735 79.5522C82.226 79.3232 81.6844 78.8127 80.9887 79.0743C80.9039 79.1068 80.7469 78.9626 80.6324 78.8891C80.0202 78.4988 79.422 78.9046 78.8678 79.0163C78.2592 79.1185 77.6802 79.3521 77.171 79.7007C76.5248 80.1814 75.8404 80.6127 75.1744 81.0666C75.0626 81.1508 74.9705 81.2585 74.9048 81.3821C74.8391 81.5057 74.8013 81.6423 74.7941 81.7821C74.8096 82.7888 73.9315 83.3686 73.7025 84.2424C73.6865 84.2914 73.6559 84.3344 73.6148 84.3654C72.3875 85.3694 72.3875 85.3694 72.4794 87.2782C72.3875 88.1252 72.7028 88.9665 73.3956 89.6891Z" fill="url(#paint0_linear_102_64)"/>
<defs>
<linearGradient id="paint0_linear_102_64" x1="81.1026" y1="9.4393" x2="81.1026" y2="136.665" gradientUnits="userSpaceOnUse">
<stop stop-color="white"/>
<stop offset="1" stop-color="#855252"/>
</linearGradient>
<clipPath id="clip0_102_64">
<rect width="162.52" height="142" fill="white"/>
</clipPath>
</defs>
</svg>
